<?xml version="1.0" encoding="UTF-8" standalone="no"?><!DOCTYPE svg PUBLIC "-//W3C//DTD SVG 1.1//EN" "http://www.w3.org/Graphics/SVG/1.1/DTD/svg11.dtd"><svg width="100%" height="100%" viewBox="0 0 505 505" version="1.1" xmlns="http://www.w3.org/2000/svg" xmlns:xlink="http://www.w3.org/1999/xlink" xml:space="preserve" xmlns:serif="http://www.serif.com/" style="fill-rule:evenodd;clip-rule:evenodd;stroke-linejoin:round;stroke-miterlimit:2;"><rect x="2.344" y="1.726" width="500" height="500" style="fill:none;"/><clipPath id="_clip1"><rect x="2.344" y="1.726" width="500" height="500"/></clipPath><g clip-path="url(#_clip1)"><path d="M251.861,294.02c0,0 -3.984,-1.21 -1.796,-4.656c-0,0 -0.046,-14.379 1.658,-17.607c1.705,-3.23 3.143,-4.069 4.36,-7.945c1.216,-3.873 2.178,-6.017 2.667,-9.028c0.484,-3.014 1.21,-27.332 1.21,-34.864c0,-7.531 -2.194,-17.861 -2.194,-26.04c0,-8.179 2.19,-17.001 2.19,-19.153c0,-2.154 -11.076,-26.472 -10.65,-35.083c0.426,-8.61 -12.963,-19.585 -13.693,-25.827c-0.731,-6.241 -0,-17.864 -0,-17.864l-10.222,-5.81l5.352,-10.117c-0,0 1.461,-4.522 -0,-5.812c-1.459,-1.29 -6.813,0.86 -9.734,1.938c-2.922,1.076 -9.251,7.317 -11.685,7.963c-2.432,0.648 -2.068,1.615 -4.139,-0.216c-2.067,-1.828 -3.77,-3.227 -4.747,-3.659c-0.97,-0.43 -4.379,0.432 -4.379,0.432c-0,0 -2.434,-0.216 -3.772,-2.152c-1.342,-1.938 -2.678,-1.938 -3.774,-2.584c-1.094,-0.644 -2.432,-2.121 -2.432,-2.121c0,-0 -5.112,3.952 -6.329,1.584c-1.219,-2.366 0,-9.578 -1.95,-11.73c-1.945,-2.154 -7.909,-5.166 -11.194,-8.717c-3.286,-3.552 -5.233,-6.564 -6.815,-7.642c-1.583,-1.076 -8.396,-18.507 6.205,-32.712c14.606,-14.205 35.538,-17.005 48.438,-6.674c12.902,10.332 18.012,23.889 29.698,32.5l3.892,-1.936l11.928,7.962c-0,0 39.919,9.901 61.824,32.284c21.907,22.384 63.288,72.747 63.288,72.747c-0,0 10.952,8.611 10.952,10.979c0,-0 7.546,9.686 10.227,13.345c2.676,3.658 21.414,24.749 14.117,44.983c-7.304,20.233 -41.625,69.302 -44.059,73.393c-2.436,4.09 -16.065,16.571 -19.96,21.739c-3.895,5.164 -16.672,29.486 -15.578,36.588c1.094,7.103 6.206,10.977 6.571,25.18c0.365,14.207 1.827,34.868 1.096,38.743c-0.731,3.876 -1.824,4.843 -0.731,8.394c1.096,3.552 2.921,4.844 2.921,8.072c-0,3.228 -0.366,12.592 -1.094,14.851c-0.731,2.257 -1.459,1.936 -1.459,5.164c-0,3.228 0.363,3.228 1.824,5.488c1.459,2.263 2.19,2.907 1.822,4.197c-0.363,1.292 -1.822,1.613 -1.822,2.905c0,1.292 2.555,9.689 2.921,11.625c0.365,1.936 1.459,5.162 1.459,7.425c-0,2.259 3.653,8.393 -2.558,12.267c-6.205,3.874 -22.998,6.78 -28.11,2.905c-0,0 -39.431,2.693 -41.258,1.831c-1.826,-0.862 -34.321,-3.121 -30.304,-18.618c4.016,-15.497 24.462,-10.654 29.211,-11.946c4.744,-1.288 10.952,-1.936 13.507,-3.551c2.555,-1.615 5.477,-3.872 7.669,-7.1c2.19,-3.231 2.555,-4.523 2.555,-7.105c0,-2.584 -0.365,-6.135 -0.365,-6.135c-0,-0 -2.557,-0.321 -5.114,-0.321c-2.555,-0 -34.319,0.644 -43.082,-1.936c-8.763,-2.585 -13.875,-13.561 -1.459,-15.174c12.414,-1.615 16.795,0.323 22.27,-1.939c5.478,-2.259 14.604,-5.81 16.43,-6.456c1.827,-0.646 3.651,-1.292 3.651,-1.292c0,-0 -2.19,-30.348 -4.016,-38.095c-1.824,-7.75 -2.44,-10.332 -5.054,-19.048c-2.613,-8.717 -5.899,-19.371 -4.805,-26.799c1.096,-7.425 1.827,-10.328 2.192,-19.369c0.365,-9.039 2.484,-23.243 3.796,-25.828c1.316,-2.582 9.348,-25.825 10.077,-32.928c0.732,-7.102 4.018,-15.497 5.479,-18.404c1.459,-2.905 5.841,-13.88 7.304,-15.818c1.457,-1.936 2.187,-2.582 4.012,-5.489c1.826,-2.904 3.288,-3.55 3.288,-6.778c-0,-3.23 1.461,-0.325 -0,-3.23c-1.462,-2.905 -3.288,-3.551 -5.113,-4.842c-1.824,-1.293 -2.557,-1.293 -4.018,-3.23c-1.457,-1.936 -1.82,-2.582 -3.283,-4.843c-1.461,-2.259 -1.096,-2.259 -2.555,-4.193c-1.461,-1.94 -4.382,-3.875 -4.382,-3.875l-5.842,-1.94c-0,0 -3.359,20.018 -4.967,23.569c-1.604,3.551 -3.065,6.779 -4.161,12.269c-1.094,5.489 -1.462,16.787 -1.462,19.694c0,2.903 0,10.214 1.827,10.917l2.613,-2.201l5.419,3.551l-5.419,7.748c0,0 2.977,6.78 0,8.395c-2.978,1.613 -5.533,4.841 -5.533,4.841c-0,0 1.461,6.134 -1.825,9.041c-3.287,2.905 -5.112,3.228 -5.112,3.228l-1.826,-0.969c-0,-0 1.461,4.469 -0,6.084c-1.461,1.615 -4.016,1.242 -4.016,1.242l-2.192,0c-0,0 -0.729,4.406 -1.827,4.731c-1.093,0.323 -3.648,0.267 -3.648,0.267l-6.208,-0.674l-120.852,143.005c0,-0 -4.381,5.16 -12.777,4.837c-8.397,-0.323 -23.368,-2.263 -16.797,-12.593c6.573,-10.331 24.099,6.131 24.099,6.131l122.129,-144.366Z" style="fill:none;fill-rule:nonzero;stroke:#fff;stroke-width:4.17px;"/></g></svg>