<?xml version="1.0" encoding="UTF-8" standalone="no"?><!DOCTYPE svg PUBLIC "-//W3C//DTD SVG 1.1//EN" "http://www.w3.org/Graphics/SVG/1.1/DTD/svg11.dtd"><svg width="100%" height="100%" viewBox="0 0 505 505" version="1.1" xmlns="http://www.w3.org/2000/svg" xmlns:xlink="http://www.w3.org/1999/xlink" xml:space="preserve" xmlns:serif="http://www.serif.com/" style="fill-rule:evenodd;clip-rule:evenodd;stroke-linejoin:round;stroke-miterlimit:2;"><rect x="3.385" y="1.726" width="500" height="500" style="fill:none;"/><clipPath id="_clip1"><rect x="3.385" y="1.726" width="500" height="500"/></clipPath><g clip-path="url(#_clip1)"><path d="M291.726,60.731l-0.728,-2.336l-185.016,57.757c-2.727,-1.579 -7.773,-2.937 -13.898,2.705c-5.235,4.827 3.913,29.159 9.012,30.16c9.324,1.824 14.562,-22.348 7.202,-31.028l183.428,-57.258Zm104.166,27.259c-4.279,-0.611 -5.807,-3.058 -13.145,-5.809c-7.333,-2.749 -19.559,-11.614 -19.559,-11.614c2.751,-2.446 9.168,-8.862 12.532,-13.753c3.359,-4.892 7.027,-14.367 7.027,-14.367c-0,0 8.866,2.447 11.31,6.113c2.444,3.668 2.75,6.113 3.667,9.477c0.917,3.362 3.974,24.755 3.974,28.425c0,3.668 -1.528,2.138 -5.806,1.528m19.557,-25.778c-3.26,-6.928 -8.148,-15.077 -10.591,-21.19c-2.449,-6.113 -7.337,-18.338 -13.45,-21.599c-6.113,-3.26 -4.074,-5.298 -10.189,-3.26c-6.111,2.036 -8.966,3.26 -13.446,4.483c-4.483,1.223 -7.338,-0.817 -8.15,2.443c-0.818,3.262 -2.04,3.67 -1.223,6.928c0.813,3.263 0.813,1.223 0.813,3.263c0,2.035 -36.268,15.894 -36.268,15.894c0,0 -13.662,1.22 -14.478,-5.706c-0.814,-6.928 -2.656,-13.858 -2.656,-15.487l-0,-5.705c-0,-0 2.453,-2.447 1.23,-4.483c-1.223,-2.038 -2.846,-3.667 -4.071,-4.485c-1.222,-0.813 -3.257,-2.85 -3.257,-2.85c0,0 -7.945,-10.189 -13.242,-8.559c-5.298,1.629 -17.42,-2.039 -18.643,4.889c-1.222,6.93 -5.247,6.52 -6.879,8.562c-1.628,2.036 -4.721,4.073 -5.128,5.704c-0.408,1.628 -1.051,4.075 -1.051,7.335l-0,6.113c-0,-0 1.997,4.89 4.034,7.334c2.036,2.447 2.729,3.26 3.952,4.89c1.222,1.63 2.588,2.853 3.809,4.077c1.22,1.221 -1.966,-1.224 1.293,1.221c3.26,2.447 3.704,3.67 5.333,5.298c1.633,1.632 1.65,1.632 1.65,1.632l2.045,2.445c-0,-0 -23.225,11.003 -21.187,20.374c2.038,9.373 12.636,33.418 24.454,48.089c-0,-0 0.816,13.854 6.113,19.967c-0,0 -1.22,9.781 2.853,17.114c4.078,7.338 4.889,9.375 6.114,10.19c1.224,0.816 2.037,-1.224 1.224,6.929c-0.817,8.15 2.445,11.408 3.26,17.521c0.813,6.113 -0,2.445 -2.445,13.043c-2.445,10.596 3.666,88.025 0.815,92.098c-2.854,4.075 -4.89,4.483 -5.705,7.743c-0.815,3.26 -0.815,5.298 -1.225,9.78c-0.407,4.483 1.632,2.446 -3.666,9.374c-5.299,6.925 -18.744,18.746 -19.969,28.934c-1.224,10.187 -4.482,15.894 -6.113,20.375c-1.355,3.73 -1.316,6.341 -2.197,9.923c-7.76,17.794 -21.635,38.129 -21.635,38.129c0.06,2.469 0.45,4.432 1.445,5.283c2.851,2.446 2.84,2.472 2.84,2.472c-0,-0 -5.304,26.907 9.772,39.135c15.078,12.226 22.412,11.414 22.412,4.486c0,-6.924 -4.486,-26.893 -3.261,-29.745c1.221,-2.85 22.414,-23.227 24.45,-28.115c1.912,-4.589 0.951,-8.822 2.51,-16.735l10.911,-13.988c2.977,-2.552 3.828,-14.037 3.828,-14.037c-2.34,-4.04 2.921,-18.951 2.921,-18.951c2.897,-5.337 4.985,-8.8 5.909,-12.495c1.223,-4.891 -1.222,-1.632 5.704,-13.043c6.93,-11.411 11.413,-19.967 14.266,-27.305c2.85,-7.333 4.073,-11.814 4.073,-13.852c0,-2.039 2.445,-11.003 2.445,-11.003c0,-0 7.337,22.819 5.708,32.193c-0.682,3.917 -1.434,10.61 -2.171,17.608c0,-0 -5.537,11.758 -4.261,19.839c-0,0 1.743,6.664 -0.193,11.343c0,0 -2.667,9.256 -0.742,12.425c-1.014,8.597 -1.99,17.3 -2.414,20.696c-0.818,6.523 -0.816,18.749 -1.223,26.488c-0.408,7.742 -0.813,11.411 -0,17.524c0.815,6.112 0.815,7.335 0.405,13.45c-0.405,6.111 -0.407,19.967 -3.667,21.599c-3.259,1.628 -11.817,2.446 -18.339,4.483c-6.518,2.036 -7.334,2.036 -14.262,2.851c-6.926,0.814 -17.929,4.892 -2.445,11.82c15.486,6.928 30.157,6.928 39.123,5.704c8.966,-1.221 16.707,-2.448 24.452,-4.076c7.741,-1.628 10.593,-1.628 11.001,-7.743c0.41,-6.115 -2.445,-8.151 0,-9.78c2.445,-1.631 4.891,1.224 6.113,-6.111c1.223,-7.336 3.668,-24.45 3.668,-32.197c0,-7.741 0.815,-11.819 0,-23.635c-0.815,-11.816 1.542,-16.908 0.363,-25.161c-1.178,-8.256 0.452,-24.15 2.897,-38.821c0.982,-5.881 2.156,-12.942 3.319,-20.026c0,-0 5.821,-15.285 5.111,-26.06l0.725,-21.693c0.182,-3.824 0.451,-8.073 1.035,-13.318c1.629,-14.671 6.924,-34.638 5.703,-39.528c-1.222,-4.89 -1.222,-4.483 -2.444,-7.336c-1.225,-2.852 -2.853,-6.52 -2.853,-6.52c0,0 1.63,-2.445 2.447,-3.668c0.813,-1.222 4.435,-2.037 3.032,-5.296c-1.404,-3.26 -2.219,-6.113 -3.032,-8.15c-0.819,-2.038 -5.215,-9.374 -5.215,-9.374c0,-0 -1.958,-4.89 -1.958,-6.52l-0,-4.89l-1.307,-11.411c0,0 -2.077,-0.408 -2.892,-3.668c-0.815,-3.26 -2.467,-8.558 -3.282,-11.818c-0.813,-3.261 -1.436,-3.261 -2.249,-5.704c-0.815,-2.447 -1.127,-2.855 -1.942,-4.485c-0.813,-1.63 -3.62,-10.595 -4.028,-13.446c-0.405,-2.855 -3.643,-10.596 -3.643,-10.596c-0,-0 6.125,-0.407 18.353,-0c12.224,0.408 29.345,3.258 30.976,-4.075c1.632,-7.336 -8.962,-46.864 -12.222,-53.794" style="fill:none;fill-rule:nonzero;stroke:#fff;stroke-width:4.17px;"/></g></svg>