<?xml version="1.0" encoding="UTF-8" standalone="no"?><!DOCTYPE svg PUBLIC "-//W3C//DTD SVG 1.1//EN" "http://www.w3.org/Graphics/SVG/1.1/DTD/svg11.dtd"><svg width="100%" height="100%" viewBox="0 0 505 505" version="1.1" xmlns="http://www.w3.org/2000/svg" xmlns:xlink="http://www.w3.org/1999/xlink" xml:space="preserve" xmlns:serif="http://www.serif.com/" style="fill-rule:evenodd;clip-rule:evenodd;stroke-linejoin:round;stroke-miterlimit:2;"><rect x="3.809" y="0.227" width="500" height="500" style="fill:none;"/><clipPath id="_clip1"><rect x="3.809" y="0.227" width="500" height="500"/></clipPath><g clip-path="url(#_clip1)"><path d="M186.613,164.458c0,0 -15.262,0.16 -20.665,1.752c-5.408,1.588 -4.135,1.507 -9.541,-0.082c-5.403,-1.588 -15.897,-4.172 -21.303,-6.715c-5.405,-2.543 -9.856,-5.664 -14.943,-7.133c-5.089,-1.474 -15.897,-7.213 -15.897,-7.213c0,0 3.02,-4.293 3.34,-7.793c0,-0 15.021,4.373 23.608,5.327c8.584,0.954 12.756,2.221 17.843,3.175c5.088,0.954 4.809,4.767 12.442,4.767l13.353,-0l15.26,-4.487l-3.497,18.402Zm138.289,311.915c-2.223,-6.677 -6.695,-13.355 -6.378,-19.077c0.316,-5.722 0.279,-12.084 -0.039,-18.443c-0.319,-6.359 -11.528,-45.468 -17.568,-61.365c-6.038,-15.898 -17.646,-38.153 -20.19,-51.825c-2.543,-13.673 -4.977,-27.663 -6.883,-44.831c-1.908,-17.168 -9.746,-23.53 -9.746,-23.53l-0,-20.667c-0,-12.401 -5.361,-27.989 -5.361,-27.989c-0,-0 7.727,-37.53 7.727,-52.474c0,-14.944 -9.674,-21.639 -9.674,-21.639c3.877,-9.857 -2.874,-16.576 -2.874,-16.576c5.084,-21.299 6.353,-42.683 -20.357,-45.862c-26.708,-3.182 -27.092,27.5 -27.092,27.5c-0,-0 -2.695,1.909 -4.918,2.865c-2.224,0.955 -3.81,1.587 -5.401,2.227c-1.589,0.632 -1.586,2.859 -2.857,6.036c-1.272,3.18 -2.226,4.454 -3.182,5.724c-0.951,1.272 -3.496,4.451 -6.358,6.998c-2.862,2.545 -4.45,2.858 -7.63,3.178c-3.178,0.318 -1.908,0 -3.816,0c-1.906,0 -5.722,-0.954 -11.446,-0.954c-5.725,0 -2.225,0.954 -7.631,1.272c-5.404,0.319 -6.994,-0 -11.762,-0c-4.77,-0 -14.945,-1.586 -14.945,-1.586l-10.176,-11.452c0,-0 -3.179,-1.586 -6.676,-1.905c-3.497,-0.316 -2.225,1.905 -3.497,3.814c-1.273,1.907 -0.003,0 -0.639,0.956c-0.635,0.951 -2.227,0.636 -4.77,2.224c-2.543,1.59 -1.28,1.906 -1.914,3.179c-0.635,1.274 -2.871,0.638 -4.461,0.955c-1.591,0.319 -1.609,1.27 -2.883,3.497c-1.27,2.226 -2.264,1.91 -6.398,5.724c-4.133,3.814 -3.258,11.128 -3.258,11.128c-4.134,-1.588 -3.74,2.226 -0.878,3.494c2.863,1.275 3.418,0.957 3.418,0.957l-0,2.859c-0,0 3.896,1.913 7.079,4.774c3.177,2.862 25.473,18.44 46.776,27.975c21.302,9.54 49.462,8.906 49.462,8.906c0,0 -0.545,13.989 -0.864,18.438c-0.317,4.456 -4.406,12.721 -5.041,14.948c-0.637,2.227 -6.656,11.124 -7.928,16.847c-1.271,5.729 -1.896,16.216 -1.896,20.991c0,4.766 -6.354,52.779 -7.625,61.999c-1.272,9.218 -1.269,17.486 -1.905,21.618c-0.637,4.135 -4.45,13.673 -6.994,23.85c-2.543,10.172 -5.086,36.246 -4.768,41.013c0.319,4.77 -11.13,24.165 -11.446,29.252c-0.319,5.09 6.359,14.308 6.043,18.759c-0.319,4.455 -4.453,9.22 -6.997,13.991c-2.543,4.772 -3.495,13.037 -3.814,18.439c-0.319,5.409 2.541,7.315 11.127,7.636c8.585,0.314 15.261,-11.132 16.85,-15.265c1.592,-4.135 1.592,-4.449 2.545,-6.357c0.955,-1.908 1.59,-3.18 4.385,-7.316c2.794,-4.129 -0.571,-3.179 0.065,-7.308c0.635,-4.136 -0.316,-5.722 0,-8.586c0.319,-2.866 1.592,-1.912 3.5,-6.679c1.907,-4.771 -0.322,-8.265 0,-10.173c0.316,-1.908 13.035,-27.344 16.851,-37.201c3.814,-9.857 3.814,-33.705 3.814,-36.883c0,-3.179 1.589,-10.174 2.862,-16.217c1.273,-6.041 3.818,-14.943 6.36,-20.349c2.543,-5.403 16.213,-36.247 16.213,-36.247c6.36,9.542 35.932,66.771 41.017,80.128c5.089,13.354 13.672,41.331 14.627,44.83c0.953,3.495 4.132,9.539 6.359,13.353c2.225,3.815 4.132,20.029 4.132,20.029c1.592,7.316 8.906,7.951 8.906,11.451c-0,3.495 -0,6.673 0.633,9.852c0.635,3.179 2.542,4.452 2.862,7.316c0.316,2.863 -0.639,5.722 -0.639,10.171c-0,4.456 6.987,6.681 19.706,6.681c12.716,0 10.485,-12.403 8.256,-19.078m-207.474,-361.252l138.18,-112.394c0,-0 7.421,-4.451 16.535,-1.483c9.114,2.965 8.691,5.934 7.418,8.9c-1.272,2.971 -3.813,6.575 -7.205,4.029c-3.392,-2.542 -15.052,-8.689 -15.052,-8.689l-136.916,112.968l-2.96,-3.331Z" style="fill:none;fill-rule:nonzero;stroke:#fff;stroke-width:4.17px;"/></g></svg>