<?xml version="1.0" encoding="UTF-8" standalone="no"?><!DOCTYPE svg PUBLIC "-//W3C//DTD SVG 1.1//EN" "http://www.w3.org/Graphics/SVG/1.1/DTD/svg11.dtd"><svg width="100%" height="100%" viewBox="0 0 459 909" version="1.1" xmlns="http://www.w3.org/2000/svg" xmlns:xlink="http://www.w3.org/1999/xlink" xml:space="preserve" xmlns:serif="http://www.serif.com/" style="fill-rule:evenodd;clip-rule:evenodd;stroke-linejoin:round;stroke-miterlimit:2;"><g id="レイヤー1"><g><path d="M68.774,17.354l326.921,-0c24.977,-0 45.227,20.25 45.227,45.229l-0,782.984c-0,24.981 -20.25,45.231 -45.227,45.231l-324.624,-0c-24.93,-0 -45.157,-20.171 -45.232,-45.099l-2.295,-782.983c-0.074,-25.031 20.199,-45.362 45.23,-45.362" style="fill:#00c200;fill-rule:nonzero;"/><path d="M428.701,838.138c0,22.072 -16.298,41.09 -38.371,41.09l-314.757,-0c-22.073,-0 -41.266,-19.018 -41.266,-41.09l0,-775.227c0,-22.073 19.193,-38.21 41.266,-38.21l36.389,0c7.692,0 10.535,-0.879 11,8.872c0.243,5.065 2.101,9.002 5.079,12.26c2.974,3.198 7.069,5.825 11.776,7.299c3.192,0.999 6.748,1.906 10.138,1.906l166.329,-0c3.391,-0 6.946,-1.114 10.139,-2.112c4.709,-1.475 8.8,-3.934 11.777,-7.072c2.979,-3.2 4.837,-6.971 5.078,-12.036c0.463,-9.749 3.31,-9.117 11.002,-9.117l36.05,0c22.073,0 38.371,16.137 38.371,38.21l0,775.227Zm-220.23,-809.642l49.298,-0c2.095,-0 3.793,1.298 3.793,3.158c0,1.863 -1.698,3.162 -3.793,3.162l-49.298,-0c-2.097,-0 -3.791,-1.299 -3.791,-3.162c-0,-1.86 1.694,-3.158 3.791,-3.158m75.213,1.088c0,3.054 -2.477,5.531 -5.53,5.531c-3.056,0 -5.531,-2.477 -5.531,-5.531c0,-3.053 2.475,-5.53 5.531,-5.53c3.053,-0 5.53,2.477 5.53,5.53m169.036,177.148l0,-141.327c0,-35.744 -28.976,-64.72 -64.721,-64.72l-314.465,0c-36.869,0 -67.037,30.168 -67.037,67.039l0,51.786c-2.095,0 -3.793,1.697 -3.793,3.791l0,26.546c0,2.095 1.698,3.793 3.793,3.793l0,31.602c-2.095,-0 -3.793,1.698 -3.793,3.793l0,56.885c0,2.093 1.698,3.791 3.793,3.791l0,18.961c-2.095,0 -3.793,1.699 -3.793,3.791l0,56.885c0,2.095 1.698,3.793 3.793,3.793l0,507.912c0,36.985 30.261,67.25 67.246,67.25l314.256,-0c35.595,-0 64.721,-29.126 64.721,-64.722l0,-531.93l1.263,0c2.096,0 3.793,-1.698 3.793,-3.793l-0,-97.333c-0,-2.094 -1.697,-3.793 -3.793,-3.793l-1.263,-0Z" style="fill:#001718;fill-rule:nonzero;"/><g><path d="M332.689,446.982c0.461,-2.429 0.689,-4.473 0.793,-6.076c0.174,-2.645 -0.024,-6.573 -0.094,-7.803c-2.437,-42.382 -46.409,-76.149 -100.296,-76.149c-55.451,-0 -100.402,35.754 -100.402,79.86c-0,40.539 37.976,74.022 87.176,79.173c3.008,0.315 5.177,3.03 4.843,6.036l-2.094,18.854c-0.476,4.28 3.95,7.394 7.828,5.522c41.568,-20.061 66.424,-40.699 81.267,-58.579c2.701,-3.254 11.508,-15.593 13.304,-18.834c3.811,-6.88 6.439,-14.269 7.675,-22.004Z" style="fill:#fff;fill-rule:nonzero;"/><path d="M177.884,452.991l-0,-33.638c-0,-2.837 -2.3,-5.136 -5.136,-5.136c-2.837,-0 -5.136,2.299 -5.136,5.136l-0,38.774c-0,2.837 2.299,5.136 5.136,5.136l20.543,0c2.836,0 5.136,-2.299 5.136,-5.136c-0,-2.836 -2.3,-5.136 -5.136,-5.136l-15.407,0Z" style="fill:#00c500;fill-rule:nonzero;"/><path d="M209.564,463.263l-2.246,0c-2.216,0 -4.013,-1.797 -4.013,-4.013l0,-41.02c0,-2.216 1.797,-4.013 4.013,-4.013l2.246,-0c2.216,-0 4.013,1.797 4.013,4.013l-0,41.02c-0,2.216 -1.797,4.013 -4.013,4.013Z" style="fill:#00c500;fill-rule:nonzero;"/><path d="M251.067,419.353l-0,23.687c-0,0 -20.511,-26.752 -20.824,-27.104c-0.98,-1.1 -2.424,-1.776 -4.027,-1.716c-2.794,0.106 -4.936,2.548 -4.936,5.343l0,38.564c0,2.836 2.3,5.136 5.136,5.136c2.836,-0 5.136,-2.3 5.136,-5.136l-0,-23.544c-0,-0 20.822,26.986 21.128,27.276c0.908,0.859 2.128,1.391 3.475,1.404c2.852,0.025 5.184,-2.497 5.184,-5.349l-0,-38.561c-0,-2.837 -2.3,-5.136 -5.136,-5.136c-2.837,0 -5.136,2.299 -5.136,5.136Z" style="fill:#00c500;fill-rule:nonzero;"/><path d="M299.856,419.353c-0,-2.837 -2.3,-5.136 -5.136,-5.136l-20.543,-0c-2.836,-0 -5.136,2.299 -5.136,5.136l0,38.774c0,2.837 2.3,5.136 5.136,5.136l20.543,0c2.836,0 5.136,-2.299 5.136,-5.136c-0,-2.836 -2.3,-5.136 -5.136,-5.136l-15.407,0l-0,-9.116l15.407,0c2.836,0 5.136,-2.299 5.136,-5.136c-0,-2.836 -2.3,-5.136 -5.136,-5.136l-15.407,0l-0,-9.116l15.407,0c2.836,0.002 5.136,-2.298 5.136,-5.134Z" style="fill:#00c500;fill-rule:nonzero;"/></g><g><clipPath id="_clip1"><path d="M428.701,838.138c0,22.072 -16.298,41.09 -38.371,41.09l-314.757,-0c-22.073,-0 -41.266,-19.018 -41.266,-41.09l0,-775.227c0,-22.073 19.193,-38.21 41.266,-38.21l36.389,0c7.692,0 10.535,-0.879 11,8.872c0.243,5.065 2.101,9.002 5.079,12.26c2.974,3.198 7.069,5.825 11.776,7.299c3.192,0.999 6.748,1.906 10.138,1.906l166.329,-0c3.391,-0 6.946,-1.114 10.139,-2.112c4.709,-1.475 8.8,-3.934 11.777,-7.072c2.979,-3.2 4.837,-6.971 5.078,-12.036c0.463,-9.749 3.31,-9.117 11.002,-9.117l36.05,0c22.073,0 38.371,16.137 38.371,38.21l0,775.227Zm-220.23,-809.642l49.298,-0c2.095,-0 3.793,1.298 3.793,3.158c0,1.863 -1.698,3.162 -3.793,3.162l-49.298,-0c-2.097,-0 -3.791,-1.299 -3.791,-3.162c-0,-1.86 1.694,-3.158 3.791,-3.158m75.213,1.088c0,3.054 -2.477,5.531 -5.53,5.531c-3.056,0 -5.531,-2.477 -5.531,-5.531c0,-3.053 2.475,-5.53 5.531,-5.53c3.053,-0 5.53,2.477 5.53,5.53m169.036,177.148l0,-141.327c0,-35.744 -28.976,-64.72 -64.721,-64.72l-314.465,0c-36.869,0 -67.037,30.168 -67.037,67.039l0,51.786c-2.095,0 -3.793,1.697 -3.793,3.791l0,26.546c0,2.095 1.698,3.793 3.793,3.793l0,31.602c-2.095,-0 -3.793,1.698 -3.793,3.793l0,56.885c0,2.093 1.698,3.791 3.793,3.791l0,18.961c-2.095,0 -3.793,1.699 -3.793,3.791l0,56.885c0,2.095 1.698,3.793 3.793,3.793l0,507.912c0,36.985 30.261,67.25 67.246,67.25l314.256,-0c35.595,-0 64.721,-29.126 64.721,-64.722l0,-531.93l1.263,0c2.096,0 3.793,-1.698 3.793,-3.793l-0,-97.333c-0,-2.094 -1.697,-3.793 -3.793,-3.793l-1.263,-0Z"/></clipPath><g clip-path="url(#_clip1)"><path d="M278.154,24.051c-3.054,0 -5.531,2.477 -5.531,5.531c-0,3.053 2.477,5.53 5.531,5.53c3.053,0 5.53,-2.477 5.53,-5.53c0,-3.054 -2.477,-5.531 -5.53,-5.531Zm-20.385,4.441l-49.297,-0c-2.097,-0 -3.794,1.298 -3.794,3.161c0,1.861 1.697,3.159 3.794,3.159l49.297,-0c2.095,-0 3.794,-1.298 3.794,-3.159c-0,-1.863 -1.699,-3.161 -3.794,-3.161Z" style="fill:#f00;"/></g></g></g></g></svg>