<?xml version="1.0" encoding="UTF-8" standalone="no"?><!DOCTYPE svg PUBLIC "-//W3C//DTD SVG 1.1//EN" "http://www.w3.org/Graphics/SVG/1.1/DTD/svg11.dtd"><svg width="100%" height="100%" viewBox="0 0 417 421" version="1.1" xmlns="http://www.w3.org/2000/svg" xmlns:xlink="http://www.w3.org/1999/xlink" xml:space="preserve" xmlns:serif="http://www.serif.com/" style="fill-rule:evenodd;clip-rule:evenodd;stroke-linejoin:round;stroke-miterlimit:2;"><rect x="0" y="2.614" width="416.667" height="416.667" style="fill:none;"/><g><path d="M375,105.479c-0,-1.658 -0.658,-3.247 -1.831,-4.419c-1.172,-1.173 -2.761,-1.831 -4.419,-1.831c-41.694,-0 -279.14,-0 -320.833,-0c-1.658,-0 -3.248,0.658 -4.42,1.831c-1.172,1.172 -1.83,2.761 -1.83,4.419c-0,-0 -0,-0 -0,-0c-0,1.658 0.658,3.247 1.83,4.419c1.172,1.172 2.762,1.831 4.42,1.831c41.693,-0 279.139,-0 320.833,-0c1.658,-0 3.247,-0.659 4.419,-1.831c1.173,-1.172 1.831,-2.761 1.831,-4.419c0,-0 0,-0 0,-0Z" style="fill:#fff;"/><path d="M375,316.416c-0,-3.451 -2.798,-6.249 -6.25,-6.25c-17.955,0 -69.545,0 -87.5,0c-3.452,0.001 -6.25,2.799 -6.25,6.25c0,0 0,0 0,0c0,3.452 2.798,6.25 6.25,6.25c17.955,0 69.545,0 87.5,0c3.452,0 6.25,-2.798 6.25,-6.25c0,0 0,0 0,0Z" style="fill:#fff;"/><path d="M375,210.948c-0,-3.452 -2.798,-6.25 -6.25,-6.25c-29.846,-0 -157.654,-0 -187.5,-0c-3.452,-0 -6.25,2.798 -6.25,6.25c0,-0 0,-0 0,-0c0,3.451 2.798,6.25 6.25,6.25c29.846,-0 157.654,-0 187.5,-0c3.452,-0 6.25,-2.799 6.25,-6.25c0,-0 0,-0 0,-0Z" style="fill:#fff;"/></g></svg>